# xmcd
#
# Track frame offsets: 
#        150
#        13803
#        41092
#        61983
#        82557
#        113276
#        133841
#        160594
#        178402
#        186559
#        216050
#        235652
#
# Disc length: 3450 seconds
#
# Revision: 1
# Processed by: cddbd v1.5.2PL0 Copyright (c) Steve Scherf et al.
# Submitted via: ExactAudioCopy v0.99pb4
#
DISCID=990d780c
DTITLE=Kettel - Smiling Little Cow
DYEAR=2002
DGENRE=Electronic
TTITLE0=So Obviously Vulnerable
TTITLE1=Her Thin Voice
TTITLE2=Redgrapes Confiture
TTITLE3=Two Strange Eyes
TTITLE4=Openeyed Greet
TTITLE5=Life Nine Sky
TTITLE6=Teacup And Pistolette
TTITLE7=Green, Orange, Earth
TTITLE8=A Novel In Key
TTITLE9=Be Nice Dust
TTITLE10=Temyne
TTITLE11=Fall In
EXTD=
EXTT0=
EXTT1=
EXTT2=
EXTT3=
EXTT4=
EXTT5=
EXTT6=
EXTT7=
EXTT8=
EXTT9=
EXTT10=
EXTT11=
PLAYORDER=
